<svg xmlns="http://www.w3.org/2000/svg" version="1.1" xmlns:xlink="http://www.w3.org/1999/xlink" xmlns:svgjs="http://svgjs.dev/svgjs" width="1440" height="560" preserveAspectRatio="none" viewBox="0 0 1440 560"><g mask="url(&quot;#SvgjsMask1055&quot;)" fill="none"><rect width="1440" height="560" x="0" y="0" fill="rgba(81, 46, 95, 1)"></rect><path d="M0,616.885C113.385,624.81,191.018,506.838,291.092,452.947C401.943,393.252,556.472,391.862,619.861,283.081C683.316,174.185,625.709,37.351,605.786,-87.099C586.186,-209.531,596.744,-354.285,504.55,-437.195C412.664,-519.828,267.039,-471.443,146.779,-499.882C35.204,-526.267,-63.767,-623.307,-175.599,-598.036C-288.248,-572.581,-345.643,-451.939,-427.209,-370.179C-515.87,-281.307,-652.588,-220.554,-675.348,-97.1C-698.138,26.516,-619.576,148.952,-541.006,247.069C-472.603,332.49,-356.41,352.251,-266.066,414.007C-172.088,478.247,-113.559,608.948,0,616.885" fill="#3c2246"></path><path d="M1440 1077.885C1551.933 1107.338 1684.192 1153.991 1780.012 1089.068 1876.084 1023.9739999999999 1879.259 883.264 1896.593 768.519 1910.397 677.146 1884.489 589.429 1869.261 498.282 1854.425 409.48699999999997 1857.547 316.203 1808.417 240.765 1755.554 159.594 1679.833 86.76400000000001 1585.885 63.16300000000001 1493.057 39.84400000000005 1402.139 91.51799999999997 1309.46 115.42200000000003 1213.1680000000001 140.257 1094.594 129.17399999999998 1031.603 206.122 968.619 283.062 1012.671 398.11 997.5930000000001 496.392 982.322 595.937 900.622 695.611 942.456 787.221 984.29 878.8299999999999 1111.392 885.2149999999999 1198.35 936.015 1280.669 984.106 1347.801 1053.625 1440 1077.885" fill="#663a78"></path></g><defs><mask id="SvgjsMask1055"><rect width="1440" height="560" fill="#ffffff"></rect></mask></defs></svg>